<svg xmlns="http://www.w3.org/2000/svg" width="300" height="60" viewBox="0 0 300 60">
  <!-- Logo Square with Black Border and Checkerboard Pattern -->
  <g transform="translate(0, 0)">
    <rect x="0" y="0" width="60" height="60" fill="#7DCDC7" stroke="#000000" stroke-width="4"/>
    
    <!-- Checkerboard Pattern - Black Squares -->
    <g fill="#000000">
      <rect x="42" y="12" width="6" height="6"/>
      <rect x="36" y="12" width="6" height="6"/>
      <rect x="30" y="18" width="6" height="6"/>
      <rect x="24" y="18" width="6" height="6"/>
      <rect x="18" y="24" width="6" height="6"/>
      <rect x="12" y="24" width="6" height="6"/>
      <rect x="6" y="30" width="6" height="6"/>
      <rect x="42" y="18" width="6" height="6"/>
      <rect x="36" y="24" width="6" height="6"/>
      <rect x="30" y="30" width="6" height="6"/>
      <rect x="24" y="36" width="6" height="6"/>
      <rect x="18" y="42" width="6" height="6"/>
      <rect x="12" y="48" width="6" height="6"/>
    </g>
  </g>
  
  <!-- Text "iMagenWiz" -->
  <g transform="translate(70, 10)">
    <text x="0" y="30" font-family="Arial, sans-serif" font-size="28" font-weight="bold" fill="#45D6D6">
      iMagenWiz
    </text>
  </g>
</svg>