<svg xmlns="http://www.w3.org/2000/svg" width="400" height="120" viewBox="0 0 400 120">
  <!-- Logo Square with Checkerboard Pattern -->
  <g transform="translate(10, 10)">
    <rect x="0" y="0" width="100" height="100" fill="none" stroke="#000" stroke-width="4"/>
    
    <!-- Checkerboard Pattern -->
    <g fill="#000">
      <rect x="86" y="14" width="8" height="8"/>
      <rect x="78" y="14" width="8" height="8"/>
      <rect x="70" y="22" width="8" height="8"/>
      <rect x="62" y="22" width="8" height="8"/>
      <rect x="54" y="30" width="8" height="8"/>
      <rect x="46" y="30" width="8" height="8"/>
      <rect x="38" y="38" width="8" height="8"/>
      <rect x="30" y="38" width="8" height="8"/>
      <rect x="22" y="46" width="8" height="8"/>
      <rect x="14" y="46" width="8" height="8"/>
      <rect x="6" y="54" width="8" height="8"/>
      <rect x="86" y="22" width="8" height="8"/>
      <rect x="78" y="30" width="8" height="8"/>
      <rect x="70" y="38" width="8" height="8"/>
      <rect x="62" y="46" width="8" height="8"/>
      <rect x="54" y="54" width="8" height="8"/>
      <rect x="46" y="62" width="8" height="8"/>
      <rect x="38" y="70" width="8" height="8"/>
      <rect x="30" y="78" width="8" height="8"/>
      <rect x="22" y="86" width="8" height="8"/>
      <rect x="14" y="94" width="8" height="8"/>
    </g>
  </g>
  
  <!-- Text "iMagenWiz" -->
  <g transform="translate(120, 65)">
    <text x="0" y="0" font-family="Arial, sans-serif" font-size="40" font-weight="bold" fill="#000">
      iMagenWiz
    </text>
  </g>
</svg>