<svg xmlns="http://www.w3.org/2000/svg" width="100" height="100" viewBox="0 0 100 100">
  <!-- Background -->
  <rect x="0" y="0" width="100" height="100" fill="#7DCDC7"/>
  
  <!-- Logo Square with Checkerboard Pattern -->
  <rect x="10" y="10" width="80" height="80" fill="#7DCDC7" stroke="#000" stroke-width="4"/>
  
  <!-- Checkerboard Pattern -->
  <g fill="#000">
    <rect x="70" y="20" width="8" height="8"/>
    <rect x="62" y="20" width="8" height="8"/>
    <rect x="54" y="28" width="8" height="8"/>
    <rect x="46" y="28" width="8" height="8"/>
    <rect x="38" y="36" width="8" height="8"/>
    <rect x="30" y="36" width="8" height="8"/>
    <rect x="22" y="44" width="8" height="8"/>
    <rect x="14" y="44" width="8" height="8"/>
    <rect x="70" y="28" width="8" height="8"/>
    <rect x="62" y="36" width="8" height="8"/>
    <rect x="54" y="44" width="8" height="8"/>
    <rect x="46" y="52" width="8" height="8"/>
    <rect x="38" y="60" width="8" height="8"/>
    <rect x="30" y="68" width="8" height="8"/>
    <rect x="22" y="76" width="8" height="8"/>
  </g>
</svg>