<svg xmlns="http://www.w3.org/2000/svg" width="300" height="60" viewBox="0 0 300 60">
  <!-- Logo Square with Checkerboard Pattern -->
  <g transform="translate(0, 0)">
    <rect x="0" y="0" width="60" height="60" fill="#FFFFFF" stroke="#45D6D6" stroke-width="3"/>
    
    <!-- Checkerboard Pattern -->
    <g fill="#45D6D6">
      <rect x="50" y="10" width="5" height="5"/>
      <rect x="45" y="10" width="5" height="5"/>
      <rect x="40" y="15" width="5" height="5"/>
      <rect x="35" y="15" width="5" height="5"/>
      <rect x="30" y="20" width="5" height="5"/>
      <rect x="25" y="20" width="5" height="5"/>
      <rect x="20" y="25" width="5" height="5"/>
      <rect x="15" y="25" width="5" height="5"/>
      <rect x="10" y="30" width="5" height="5"/>
      <rect x="5" y="30" width="5" height="5"/>
      <rect x="50" y="15" width="5" height="5"/>
      <rect x="45" y="20" width="5" height="5"/>
      <rect x="40" y="25" width="5" height="5"/>
      <rect x="35" y="30" width="5" height="5"/>
      <rect x="30" y="35" width="5" height="5"/>
      <rect x="25" y="40" width="5" height="5"/>
      <rect x="20" y="45" width="5" height="5"/>
      <rect x="15" y="50" width="5" height="5"/>
      <rect x="10" y="55" width="5" height="5"/>
    </g>
  </g>
  
  <!-- Text "iMagenWiz" -->
  <g transform="translate(70, 10)">
    <text x="0" y="30" font-family="Arial, sans-serif" font-size="30" font-weight="bold" fill="#45D6D6">
      iMagenWiz
    </text>
  </g>
</svg>