<svg xmlns="http://www.w3.org/2000/svg" width="400" height="200" viewBox="0 0 400 200">
  <!-- Logo Square with Checkerboard Pattern -->
  <g transform="translate(120, 40)">
    <rect x="0" y="0" width="160" height="160" fill="#FFFFFF" stroke="#45D6D6" stroke-width="6"/>
    
    <!-- Checkerboard Pattern -->
    <g fill="#45D6D6">
      <rect x="140" y="20" width="12" height="12"/>
      <rect x="128" y="20" width="12" height="12"/>
      <rect x="116" y="32" width="12" height="12"/>
      <rect x="104" y="32" width="12" height="12"/>
      <rect x="92" y="44" width="12" height="12"/>
      <rect x="80" y="44" width="12" height="12"/>
      <rect x="68" y="56" width="12" height="12"/>
      <rect x="56" y="56" width="12" height="12"/>
      <rect x="44" y="68" width="12" height="12"/>
      <rect x="32" y="68" width="12" height="12"/>
      <rect x="20" y="80" width="12" height="12"/>
      <rect x="8" y="80" width="12" height="12"/>
      <rect x="140" y="32" width="12" height="12"/>
      <rect x="128" y="44" width="12" height="12"/>
      <rect x="116" y="56" width="12" height="12"/>
      <rect x="104" y="68" width="12" height="12"/>
      <rect x="92" y="80" width="12" height="12"/>
      <rect x="80" y="92" width="12" height="12"/>
      <rect x="68" y="104" width="12" height="12"/>
      <rect x="56" y="116" width="12" height="12"/>
      <rect x="44" y="128" width="12" height="12"/>
      <rect x="32" y="140" width="12" height="12"/>
    </g>
  </g>
  
  <!-- Text "iMagenWiz" -->
  <g transform="translate(40, 230)">
    <text x="110" y="0" font-family="Arial, sans-serif" font-size="48" font-weight="bold" text-anchor="middle" fill="#45D6D6">
      iMagenWiz
    </text>
    <!-- Subtitle -->
    <text x="110" y="40" font-family="Arial, sans-serif" font-size="20" font-weight="lighter" letter-spacing="10" text-anchor="middle" fill="#45D6D6">
      IMAGE'N WIZ
    </text>
  </g>
</svg>