<svg xmlns="http://www.w3.org/2000/svg" width="300" height="60" viewBox="0 0 300 60">
  <!-- Logo Square with Gradient Border and Background -->
  <defs>
    <linearGradient id="squareGradient" x1="0%" y1="0%" x2="100%" y2="100%">
      <stop offset="0%" style="stop-color:#00E676;stop-opacity:1" />
      <stop offset="100%" style="stop-color:#00BCD4;stop-opacity:1" />
    </linearGradient>
    <linearGradient id="checkerGradient" x1="0%" y1="0%" x2="100%" y2="100%">
      <stop offset="0%" style="stop-color:#00E676;stop-opacity:1" />
      <stop offset="100%" style="stop-color:#00BCD4;stop-opacity:1" />
    </linearGradient>
    <linearGradient id="textGradient" x1="0%" y1="0%" x2="100%" y2="0%">
      <stop offset="0%" style="stop-color:#00E676;stop-opacity:1" />
      <stop offset="100%" style="stop-color:#00BCD4;stop-opacity:1" />
    </linearGradient>
  </defs>
  
  <!-- Logo Square with Gradient Border and Checkerboard Pattern -->
  <g transform="translate(0, 0)">
    <rect x="2" y="2" width="50" height="50" fill="#333333" stroke="url(#squareGradient)" stroke-width="2"/>
    
    <!-- Checkerboard Pattern - Gradient Squares -->
    <g fill="url(#checkerGradient)">
      <rect x="35" y="10" width="5" height="5"/>
      <rect x="30" y="10" width="5" height="5"/>
      <rect x="25" y="15" width="5" height="5"/>
      <rect x="20" y="15" width="5" height="5"/>
      <rect x="15" y="20" width="5" height="5"/>
      <rect x="10" y="20" width="5" height="5"/>
      <rect x="5" y="25" width="5" height="5"/>
      <rect x="35" y="15" width="5" height="5"/>
      <rect x="30" y="20" width="5" height="5"/>
      <rect x="25" y="25" width="5" height="5"/>
      <rect x="20" y="30" width="5" height="5"/>
      <rect x="15" y="35" width="5" height="5"/>
      <rect x="10" y="40" width="5" height="5"/>
    </g>
  </g>
  
  <!-- Text "iMagenWiz" with Gradient -->
  <g transform="translate(62, 5)">
    <text x="0" y="30" font-family="Arial, sans-serif" font-size="30" font-weight="600" fill="url(#textGradient)">
      iMagenWiz
    </text>
  </g>
</svg>